<?xml version="1.0" encoding="UTF-8"?> <svg xmlns="http://www.w3.org/2000/svg" width="76" height="42" viewBox="0 0 76 42" fill="none"><path d="M75.3299 36.9105C76.2787 38.238 76.0889 39.9447 74.9504 40.8929C73.6222 41.8411 71.7247 41.6514 70.776 40.5136L64.1348 31.9799L57.6834 40.324C56.7346 41.6514 54.8372 41.6514 53.5089 40.7033C52.1807 39.7551 51.9909 38.0483 52.9397 36.7209L60.5296 26.8597L52.9397 16.9985C51.9909 15.671 52.3704 13.7747 53.5089 12.8265C54.8372 11.8783 56.7346 12.2576 57.6834 13.3954L64.1348 21.9291L70.776 13.7747C71.7247 12.4472 73.4324 12.2576 74.9504 13.2057C76.2787 14.1539 76.2787 16.0503 75.3299 17.3778L67.9298 27.0493L75.3299 36.9105ZM40.7958 35.7727C35.8624 35.7727 31.8777 31.9799 31.8777 27.0493C31.8777 22.3084 35.8624 18.326 40.7958 18.326C45.7293 18.326 49.714 22.3084 49.714 27.0493C49.5242 31.9799 45.5395 35.7727 40.7958 35.7727ZM14.6106 35.7727C9.67714 35.7727 5.69244 31.9799 5.69244 27.0493C5.69244 22.3084 9.67714 18.326 14.6106 18.326C19.544 18.326 23.5287 22.3084 23.5287 27.0493C23.5287 31.9799 19.544 35.7727 14.6106 35.7727ZM40.7958 12.6368C35.2931 12.6368 30.3597 15.671 27.8929 20.2224C25.4262 15.671 20.4928 12.6368 14.8003 12.6368C11.3849 12.6368 8.34891 13.7747 5.88219 15.4814V3.34457C5.88219 1.82747 4.55395 0.5 3.03597 0.5C1.32824 0.5 0 1.82747 0 3.34457V27.239C0.189748 35.2038 6.64118 41.4618 14.6106 41.4618C20.303 41.4618 25.2365 38.238 27.7032 33.6866C30.1699 38.238 35.1034 41.4618 40.6061 41.4618C48.7652 41.4618 55.4064 35.0141 55.4064 26.8597C55.5961 19.0845 48.955 12.6368 40.7958 12.6368Z" fill="white"></path></svg> 