<?xml version="1.0" encoding="UTF-8"?> <svg xmlns="http://www.w3.org/2000/svg" width="143" height="54" viewBox="0 0 143 54" fill="none"><path d="M111.199 0.217466C110.341 0.212049 109.427 0.452746 108.877 0.819644C107.462 1.76363 102.268 17.9226 100.102 26.2258C100.102 26.2258 99.6329 27.9544 99.0123 31.9322C98.9125 32.5779 98.5822 35.1071 98.4388 35.8893C97.8997 38.8199 95.8042 40.3925 93.9942 40.0472C91.7334 39.616 91.41 36.2633 92.0156 33.7674C92.6786 31.0318 94.929 27.9429 97.5212 28.6919C98.7703 28.9832 99.4161 28.8364 99.4998 28.0037C99.6065 26.9278 98.3241 26.2832 98.3241 26.2832C93.353 23.7815 88.9118 27.8741 87.7717 33.6527C86.44 40.3959 90.6071 45.757 97.3778 41.9111C99.4975 40.7079 99.3828 43.5181 104.145 43.3449C107.608 43.0077 109.584 40.4498 107.787 39.0436C106.611 38.1226 105.819 39.9268 103.858 39.6745C99.6707 39.1365 104.359 26.9794 106.783 19.4011C108.852 12.9378 111.156 8.29583 113.12 3.0563C113.91 0.949399 112.63 0.226494 111.199 0.217466ZM35.5542 1.59387C28.3672 1.78437 15.0257 8.6443 4.95788 16.591C0.829808 20.18 -1.54793 21.0322 1.14409 23.9031C3.53674 26.2958 5.07258 24.4766 5.07258 24.4766C7.34595 22.6816 12.2517 17.6646 15.4817 15.2719C20.0811 11.8642 26.4321 6.95268 32.0559 5.63707C36.5177 4.50612 37.8735 5.82174 37.2748 10.3685C36.9226 14.2706 33.9198 23.0429 33.9198 23.0429C33.9198 23.0429 29.3019 25.1109 27.9267 25.6236C26.8519 26.0228 25.7279 25.751 25.604 28.2044C25.5489 30.8356 27.1456 29.8446 28.2134 29.4374C29.0393 29.122 30.9869 28.1895 31.7118 27.889C32.2497 27.4703 32.8427 27.8282 32.5434 28.6059C32.0054 30.3413 31.0293 33.1675 29.1884 37.2371C26.8554 42.8012 22.6722 50.4047 22.1343 52.3202C22.1939 53.5762 23.5623 53.7562 25.3746 53.7826C27.0412 53.6542 27.812 52.4922 27.812 52.4922C27.812 52.4922 29.9832 47.8228 33.3176 39.6171C35.7389 33.6573 37.3252 28.7343 37.9916 26.5126C38.3507 25.197 39.1249 24.9171 40.1423 24.6774C41.6632 24.1784 43.7978 23.5086 45.1031 23.2723C48.4019 22.4579 49.3504 22.6334 49.7771 20.3474C50.0742 18.7577 49.3757 18.0247 49.3757 18.0247C49.3757 18.0247 42.1874 20.266 40.7444 20.6628C39.4885 21.2008 39.7121 19.8886 39.7121 19.8886C39.7121 19.8886 39.5367 20.7179 40.3143 17.3078C42.6726 6.93433 41.2996 4.17349 39.4254 2.5975C38.5359 1.86199 37.2128 1.54991 35.5542 1.59387ZM133.021 20.0033C131.787 19.9497 128.971 22.0435 130.068 27.3728C128.572 32.9954 117.163 42.8081 115.644 38.8429C115.273 37.8771 116.272 36.2896 118.884 35.746C123.191 34.8479 122.831 32.1696 120.777 31.9035C117.547 31.4848 116.656 31.486 112.805 30.5844C111.286 30.4239 111.331 28.4051 113.12 28.4338C113.86 28.404 115.707 28.6586 119.658 28.8066C123.793 28.9614 124.612 25.7452 124.447 23.7598C120.227 24.6705 119.227 24.9068 115.587 24.9068C111.767 24.9068 107.041 25.962 106.955 29.3227C106.869 32.6617 111.252 33.4152 113.522 34.0541C114.151 34.2044 114.371 34.7286 113.952 35.0578C112.982 35.832 110.8 36.8448 110.54 38.6708C110.17 41.2562 112.518 43.2933 115.501 43.2302C119.471 43.1476 123.875 41.4626 128.089 36.4055C129.28 34.9775 130.62 32.5653 131.444 31.502C131.641 31.1189 132.196 30.9285 132.448 30.9572C133.2 31.1235 134.283 31.6879 134.139 32.5057C133.92 33.7571 130.494 37.6695 132.763 40.0186C134.157 41.4615 137.681 42.4823 140.477 40.4487C143.093 38.5458 142.173 36.8184 141.136 36.6922C140.395 36.6028 138.31 39.2065 136.634 37.3518C135.243 35.8113 138.558 32.6376 139.215 31.502C140.163 29.8641 136.469 28.6036 134.914 26.5699C133.91 25.2325 136.511 21.148 133.25 20.0607C133.184 20.0385 133.103 20.0069 133.021 20.0033ZM140.591 22.0679C139.934 22.0679 139.364 22.2916 138.899 22.7561C138.433 23.223 138.211 23.7907 138.211 24.448C138.211 25.1121 138.437 25.6741 138.899 26.1398C139.364 26.6078 139.929 26.8567 140.591 26.8567C141.254 26.8567 141.816 26.6078 142.283 26.1398C142.75 25.6707 143 25.1098 143 24.448C143 23.7884 142.75 23.2207 142.283 22.7561C141.816 22.2916 141.254 22.0679 140.591 22.0679ZM140.591 22.3833C141.164 22.3833 141.649 22.5818 142.054 22.9855C142.455 23.387 142.656 23.879 142.656 24.448C142.656 25.0215 142.455 25.5066 142.054 25.9104C141.651 26.3141 141.166 26.5126 140.591 26.5126C140.017 26.5126 139.531 26.3141 139.129 25.9104C138.73 25.5066 138.527 25.0215 138.527 24.448C138.527 23.879 138.727 23.387 139.129 22.9855C139.534 22.5818 140.021 22.3833 140.591 22.3833ZM139.616 23.1289V25.7383H140.075V24.7347H140.448C140.7 24.7347 140.864 24.7359 140.964 24.7921C141.134 24.8896 141.222 25.0914 141.222 25.3942V25.6236L141.251 25.7097C141.253 25.7211 141.249 25.7292 141.251 25.7383H141.681L141.652 25.7097C141.642 25.6879 141.656 25.6649 141.652 25.595C141.648 25.5261 141.624 25.4539 141.624 25.3942V25.1935C141.624 25.0616 141.575 24.9308 141.48 24.7921C141.385 24.6544 141.254 24.5661 141.05 24.534C141.212 24.5076 141.332 24.4778 141.423 24.4193C141.593 24.308 141.681 24.1096 141.681 23.8745C141.681 23.5441 141.552 23.3285 141.279 23.2149C141.127 23.1518 140.861 23.1289 140.534 23.1289H139.616ZM140.075 23.4443H140.477C140.739 23.4443 140.931 23.4948 141.05 23.559C141.169 23.6244 141.222 23.7414 141.222 23.9318C141.222 24.1325 141.149 24.2621 140.964 24.3333C140.864 24.3723 140.706 24.3906 140.505 24.3906H140.075V23.4443ZM61.4192 24.2186C57.9094 25.2646 56.1315 25.1362 52.4152 25.1362C48.5154 25.1362 43.2438 25.6798 43.4686 29.4374C43.6578 32.5974 48.1094 33.4795 50.408 33.7387C51.0664 33.6779 51.259 34.2984 50.7808 34.6276C49.7439 35.6783 48.5601 37.1224 48.4007 38.2981C48.0532 40.8421 49.3562 43.0857 52.5873 43.0294C56.057 42.9698 57.1937 40.451 62.9964 36.9216C64.6159 35.9364 66.6404 34.2732 67.4697 34.1402C67.7885 34.1402 68.2451 34.2445 68.2152 34.857C67.7243 37.1728 67.1875 38.7328 67.7851 40.7068C68.2072 42.0969 70.0436 42.9721 71.3695 41.9685C73.5821 40.2938 73.6039 39.3189 76.4737 35.5452C76.9485 34.9213 78.708 32.0675 79.5132 32.4483C80.1819 32.7637 79.9812 33.6963 79.8573 34.4269C79.254 37.9597 77.7216 43.5467 84.7034 42.6853C86.3632 42.4812 87.7143 41.3502 86.4526 40.1619C85.6899 39.4428 84.8296 39.9532 83.8719 39.7318C81.6318 39.2157 87.1752 29.0096 84.5314 27.1147C80.8139 24.4514 77.3672 29.1725 74.7818 32.6204C73.7622 33.9796 73.0063 33.3866 72.3445 31.4734C71.6069 29.3445 67.1978 30.909 64.6595 32.2189C60.6106 34.3076 53.1126 41.2963 52.4152 37.8106C52.2948 37.2084 53.2904 35.863 55.1107 35.2011C57.2453 34.4246 59.6414 33.7318 59.6414 32.4483C59.6414 31.455 59.0484 30.7496 58.4083 30.7852C55.4296 30.9503 51.9633 31.7314 47.9993 30.6418C47.0954 30.6349 46.6997 28.3673 49.3757 28.6632C50.0845 28.7423 51.6674 28.8593 57.6628 28.9786C61.8861 29.0635 61.9858 25.8978 61.4192 24.2186Z" fill="white"></path></svg> 