<?xml version="1.0" encoding="UTF-8"?> <svg xmlns="http://www.w3.org/2000/svg" width="64" height="64" viewBox="0 0 64 64" fill="none"><path d="M32 61.0558C16.0641 61.0558 3.00828 47.9359 3.00828 32C3.00828 28.4163 3.64838 25.0242 4.86451 21.8237L21.8237 55.9356C22.0159 56.3835 22.3357 56.7673 22.8476 56.7673C23.3596 56.7673 23.6793 56.3835 23.8715 55.9356L31.6796 38.4638C31.7437 38.2716 31.8719 38.08 32.0634 38.08C32.255 38.08 32.3197 38.2722 32.4473 38.4638L40.2554 55.9356C40.4476 56.3835 40.7673 56.7673 41.2793 56.7673C41.7912 56.7673 42.111 56.3835 42.3032 55.9356L59.2636 21.8237C60.4798 25.0236 61.1199 28.4157 61.1199 32C60.9917 47.9359 47.9359 61.0558 32 61.0558ZM32 25.408C31.8078 25.408 31.7437 25.2158 31.6162 25.0242L22.5279 4.54352C25.4721 3.45554 28.672 2.87951 32 2.87951C35.328 2.87951 38.5279 3.45554 41.4721 4.54352L32.3838 25.0236C32.2557 25.2799 32.1916 25.4074 32 25.4074V25.408ZM22.7201 46.4641C22.5279 46.4641 22.4638 46.2719 22.3363 46.0803L7.61588 16.3838C10.2397 12.3516 13.76 8.95952 18.0478 6.59197L28.672 30.2078C28.8001 30.5917 29.1199 30.7198 29.4402 30.7198H34.5604C34.9442 30.7198 35.2005 30.6557 35.3921 30.2078L46.0156 6.59197C50.2394 8.96015 53.8237 12.3522 56.4476 16.3838L41.5996 46.0797C41.5355 46.2719 41.4074 46.4635 41.2158 46.4635C41.0242 46.4635 40.9595 46.2713 40.832 46.0797L35.2639 33.4077C35.0717 32.9598 34.8161 32.8958 34.4323 32.8958H29.3121C28.9283 32.8958 28.672 32.9598 28.4804 33.4077L23.1046 46.0797C23.0405 46.2719 22.9123 46.4635 22.7207 46.4635L22.7201 46.4641ZM32 64C49.7281 64 64 49.7281 64 32C64 14.2719 49.7281 0 32 0C14.2719 0 0 14.2719 0 32C0 49.7281 14.2719 64 32 64Z" fill="white"></path></svg> 