<?xml version="1.0" encoding="UTF-8"?> <svg xmlns="http://www.w3.org/2000/svg" width="135" height="38" viewBox="0 0 135 38" fill="none"><path d="M68.721 15.9995H71.5489V10.9546H73.555V8.9155H66.7148V10.9546H68.721V15.9995Z" fill="white"></path><path d="M75.6392 15.9995L77.0806 11.7632L78.5198 15.9995H81.2862L78.5747 8.9155H75.5842L72.875 15.9995H75.6392Z" fill="white"></path><path d="M82.6135 15.9995H85.4414V10.9546H87.4476V8.9155H80.6074V10.9546H82.6135V15.9995Z" fill="white"></path><path d="M89.5337 15.9995L90.9751 11.7632L92.4143 15.9995H95.1807L92.4715 8.9155H89.4788L86.7695 15.9995H89.5337Z" fill="white"></path><path d="M116.672 21.0642C117.021 21.8662 117.483 22.7341 117.942 23.5076L119.792 26.6233H121.132V19.5393H119.935V22.0112C119.935 23.0945 119.959 24.0063 120.051 24.9468L120.027 24.9534C119.7 24.1843 119.289 23.3603 118.821 22.5803L116.99 19.5393H115.512V26.6233H116.707V24.0898C116.707 22.9275 116.689 21.9914 116.639 21.0708L116.672 21.0642Z" fill="white"></path><path d="M110.249 24.6216H112.499L113.14 26.6233H114.529L112.229 19.5393H110.583L108.309 26.6233H109.647L110.249 24.6216ZM111.007 21.8948C111.132 21.4729 111.24 20.9829 111.343 20.5676H111.365C111.473 20.9785 111.589 21.4619 111.723 21.8992L112.281 23.646H110.455L111.007 21.8948Z" fill="white"></path><path d="M89.1597 25.6631C88.5005 25.6631 87.8655 25.4522 87.448 25.2105L87.1602 26.2827C87.5469 26.52 88.3247 26.7354 89.074 26.7354C90.9021 26.7354 91.7613 25.7466 91.7613 24.6062C91.7613 23.5889 91.1702 22.9692 89.9397 22.5012C88.9949 22.1409 88.584 21.8838 88.584 21.341C88.584 20.9236 88.9334 20.4885 89.7551 20.4885C90.4209 20.4885 90.9153 20.6907 91.1702 20.8247L91.48 19.781C91.1109 19.5942 90.5484 19.4316 89.7815 19.4316C88.2456 19.4316 87.2744 20.3061 87.2744 21.4663C87.2744 22.4814 88.0215 23.1099 89.1926 23.5251C90.0869 23.8503 90.4473 24.1667 90.4473 24.7007C90.4473 25.2764 89.9837 25.6631 89.1597 25.6631Z" fill="white"></path><path d="M70.5623 20.4973C71.1402 20.4973 71.6126 20.6247 71.9422 20.7742L72.2234 19.7436C71.9597 19.6008 71.3599 19.4294 70.5073 19.4294C68.343 19.4294 66.7148 20.8357 66.7148 23.1648C66.7148 25.3203 68.0837 26.7354 70.3316 26.7354C71.1885 26.7354 71.8631 26.5662 72.1685 26.4124L71.9554 25.3928C71.6148 25.5466 71.0677 25.6499 70.5425 25.6499C68.9846 25.6499 68.0772 24.6611 68.0772 23.0989C68.0772 21.3982 69.1165 20.4973 70.5623 20.4973Z" fill="white"></path><path d="M106.732 26.6233V20.6269H108.773V19.5393H103.414V20.6269H105.438V26.6233H106.732Z" fill="white"></path><path d="M132.594 19.5393L131.741 21.3542C131.5 21.8684 131.304 22.3078 131.128 22.7605H131.106C130.913 22.2815 130.728 21.8772 130.489 21.3564L129.645 19.5393H128.164L130.405 23.6746V26.6233H131.699V23.6394L134.053 19.5415H132.594V19.5393Z" fill="white"></path><path d="M75.9744 19.425C73.9749 19.425 72.6016 20.9609 72.6016 23.1362C72.6016 25.2105 73.8672 26.742 75.8711 26.742H75.8821C77.8223 26.742 79.2615 25.384 79.2615 23.011C79.2571 20.9851 78.0398 19.425 75.9744 19.425ZM75.9238 25.7048H75.9129C74.6758 25.7048 73.9529 24.5139 73.9573 23.1055C73.9551 21.6926 74.6362 20.4599 75.9282 20.4599C77.2202 20.4599 77.8838 21.7234 77.8838 23.0593C77.8816 24.5403 77.1741 25.7048 75.9238 25.7048Z" fill="white"></path><path d="M126.094 20.4973C126.671 20.4973 127.144 20.6247 127.473 20.7742L127.755 19.7436C127.491 19.6008 126.891 19.4294 126.039 19.4294C123.874 19.4294 122.246 20.8357 122.246 23.1648C122.246 25.3203 123.615 26.7354 125.863 26.7354C126.72 26.7354 127.394 26.5684 127.7 26.4124L127.487 25.3928C127.146 25.5466 126.599 25.6499 126.074 25.6499C124.516 25.6499 123.608 24.6611 123.608 23.0989C123.608 21.3982 124.648 20.4973 126.094 20.4973Z" fill="white"></path><path d="M101.218 19.5393H99.9238V26.6233H104.132V25.5379H101.218V19.5393Z" fill="white"></path><path d="M98.4507 23.5867V19.5415H97.1565V23.6724C97.1565 25.0611 96.5962 25.7005 95.6646 25.7005C94.7879 25.7005 94.2122 25.0567 94.2122 23.6724V19.5415H92.918V23.5955C92.918 25.8236 93.9836 26.7442 95.6162 26.7442C97.3279 26.742 98.4507 25.7686 98.4507 23.5867Z" fill="white"></path><path d="M85.9878 19.5393H84.7903V22.0112C84.7903 23.0945 84.8145 24.0063 84.9068 24.9468L84.8826 24.9534C84.5552 24.1843 84.1443 23.3603 83.6763 22.5803L81.846 19.5393H80.3672V26.6233H81.5647V24.0898C81.5647 22.9275 81.5471 21.9914 81.4966 21.073L81.5296 21.0664C81.8789 21.8684 82.3403 22.7363 82.7996 23.5098L84.6497 26.6255H85.99V19.5393H85.9878Z" fill="white"></path><path d="M91.5247 30.1655H90.2305V37.2495H91.5247V30.1655Z" fill="white"></path><path d="M81.3338 33.9272V33.8987C81.9951 33.6636 82.6104 33.0483 82.6104 32.143C82.6104 31.541 82.3907 31.0532 82.0061 30.7324C81.5315 30.3369 80.7141 30.1655 79.8374 30.1655C78.9607 30.1655 78.3806 30.227 77.8906 30.3171V37.2495H79.165V34.3601H79.811C80.5405 34.3777 80.8745 34.6743 81.0767 35.5906C81.2722 36.4651 81.4414 37.0452 81.5491 37.2495H82.8675C82.7268 36.9749 82.5357 36.1685 82.3138 35.2896C82.138 34.6062 81.8435 34.1206 81.3338 33.9272ZM79.9253 33.4175H79.165V31.196C79.2947 31.1631 79.5562 31.1323 79.9627 31.1323C80.7932 31.1345 81.3316 31.4927 81.3316 32.2595C81.3316 32.9582 80.7954 33.4175 79.9253 33.4175Z" fill="white"></path><path d="M87.0567 33.404C86.782 34.2632 86.5249 35.1289 86.336 35.9639H86.314C86.1294 35.1069 85.8877 34.2786 85.6196 33.3843L84.6528 30.1631H83.2422L85.534 37.2471H87.0171L89.4649 30.1631H88.0872L87.0567 33.404Z" fill="white"></path><path d="M100.478 34.1052H103.147V33.0505H100.478V31.229H103.306V30.1655H99.1836V37.2473H103.462V36.1838H100.478V34.1052Z" fill="white"></path><path d="M96.4842 31.1211C97.062 31.1211 97.5345 31.2485 97.864 31.3979L98.1453 30.3674C97.8816 30.2246 97.2818 30.0532 96.4292 30.0532C94.2649 30.0532 92.6367 31.4595 92.6367 33.7886C92.6367 35.9441 94.0056 37.3591 96.2534 37.3591C97.1104 37.3591 97.7849 37.1922 98.0904 37.0361L97.8772 36.0166C97.5345 36.1704 96.9895 36.2737 96.4644 36.2737C94.9065 36.2737 93.999 35.2849 93.999 33.7226C93.999 32.022 95.0383 31.1211 96.4842 31.1211Z" fill="white"></path><path d="M69.4927 33.1252C68.5457 32.7649 68.137 32.5078 68.137 31.9651C68.137 31.5476 68.4863 31.1125 69.3059 31.1125C69.9717 31.1125 70.4661 31.3147 70.721 31.4487L71.0308 30.405C70.6616 30.2182 70.0991 30.0556 69.3323 30.0556C67.7964 30.0556 66.8252 30.9302 66.8252 32.0903C66.8252 33.1055 67.5723 33.7339 68.7434 34.1492C69.6377 34.4744 69.9981 34.7908 69.9981 35.3247C69.9981 35.9048 69.5366 36.2915 68.7105 36.2915C68.0513 36.2915 67.4163 36.0806 66.9988 35.8389L66.7109 36.9111C67.0977 37.1485 67.8755 37.3638 68.6248 37.3638C70.4529 37.3638 71.312 36.375 71.312 35.2346C71.3142 34.2129 70.7232 33.5933 69.4927 33.1252Z" fill="white"></path><path d="M73.7708 34.1052H76.4405V33.0505H73.7708V31.229H76.6009V30.1655H72.4766V37.2473H76.7569V36.1838H73.7708V34.1052Z" fill="white"></path><path d="M107.065 33.1252C106.12 32.7649 105.709 32.5078 105.709 31.9651C105.709 31.5476 106.059 31.1125 106.878 31.1125C107.544 31.1125 108.038 31.3147 108.293 31.4487L108.603 30.405C108.234 30.2182 107.671 30.0556 106.905 30.0556C105.369 30.0556 104.397 30.9302 104.397 32.0903C104.397 33.1055 105.145 33.7339 106.316 34.1492C107.21 34.4744 107.57 34.7908 107.57 35.3247C107.57 35.9048 107.109 36.2915 106.283 36.2915C105.624 36.2915 104.989 36.0806 104.571 35.8389L104.283 36.9111C104.67 37.1485 105.448 37.3638 106.197 37.3638C108.025 37.3638 108.884 36.375 108.884 35.2346C108.887 34.2129 108.295 33.5933 107.065 33.1252Z" fill="white"></path><path d="M0 13.7606C0 10.5525 2.08522 8.62771 5.13285 8.62771V3.17406C5.13285 1.57004 4.06277 0.499969 2.56642 0.499969C1.07008 0.499969 0 1.57004 0 3.17406V13.7606Z" fill="white"></path><path d="M9.09015 37.445C10.3734 37.445 11.5489 37.2318 12.619 36.8561C7.21806 37.7658 5.13285 34.0766 5.13285 29.9061V12.7981H11.3885C12.8321 12.7981 13.7945 11.9434 13.7945 10.7129C13.7945 9.4824 12.8321 8.62766 11.3885 8.62766H5.13285C2.08522 8.62766 0 10.5525 0 13.7605V28.4625C0 34.3446 3.36843 37.445 9.09015 37.445Z" fill="white"></path><path d="M12.6189 36.8562C14.7569 36.0542 16.4158 34.5578 17.4837 32.3649L15.0777 28.0341C14.0076 31.2421 12.1377 32.9538 9.57132 32.9538C6.89723 32.9538 5.13281 31.4025 5.13281 27.8737V29.9062C5.13281 34.0766 7.21803 37.7658 12.6189 36.8562Z" fill="white"></path><path d="M34.5932 36.0014C22.4026 37.8185 18.553 31.297 18.553 22.9034C18.553 16.8081 22.295 12.6377 27.6959 12.6377C29.6734 12.6377 31.3324 13.0662 32.8287 13.7605C33.5231 14.0813 34.112 14.189 34.6459 14.189C35.9291 14.189 36.7838 13.3342 36.7838 12.051C36.7838 11.249 36.3026 10.447 35.1798 9.91306C33.1473 8.89792 30.5282 8.30905 27.6937 8.30905C19.2452 8.30905 13.418 14.2966 13.418 23.0111C13.418 31.5651 19.032 37.4999 28.0672 37.4999C30.5304 37.4977 32.6683 37.0165 34.5932 36.0014Z" fill="white"></path><path d="M13.4219 23.0089C13.4219 14.2944 19.2491 8.30685 27.6976 8.30685C30.5321 8.30685 33.1513 8.89573 35.1837 9.91087C36.3065 10.4448 36.7878 11.2468 36.7878 12.0488C36.7878 13.332 35.933 14.1868 34.6498 14.1868C34.1159 14.1868 33.527 14.0791 32.8326 13.7583C31.0155 12.9036 29.2511 12.6355 27.6998 12.6355C20.2642 12.6377 13.4219 17.3421 13.4219 23.0089Z" fill="white"></path><path d="M45.3381 10.0185C44.8569 10.4997 44.5889 11.0886 44.5889 11.7829C44.5889 13.5474 46.2456 16.1665 50.0953 18.8406L54.4788 21.8882C57.6869 24.1339 58.9701 26.2718 58.9701 29.4798C58.9701 31.7782 58.0604 33.7579 56.5641 35.1466C57.098 34.6654 57.4188 34.0238 57.4188 33.1691C57.4188 31.297 55.5467 28.357 51.5367 25.5775L47.5266 22.7979C44.1582 20.4446 42.8223 18.2539 42.8223 15.259C42.8223 13.4946 43.4639 11.8906 44.5339 10.7151C44.8042 10.4448 45.0701 10.2317 45.3381 10.0185Z" fill="white"></path><path d="M41.8633 34.0239C41.8633 34.8787 42.2917 35.5752 43.4146 36.1092C44.9658 36.8584 47.4773 37.5 49.723 37.5C52.5574 37.5 54.9085 36.6453 56.5675 35.1468C57.1014 34.6656 57.4222 34.0239 57.4222 33.1692C57.4222 31.2971 55.5501 28.3572 51.5401 25.5776C53.3573 26.8608 54.1065 27.9309 54.1065 29.48C54.1065 31.7783 52.2894 33.3296 49.668 33.3296C47.1543 33.3296 45.0164 32.0464 43.8408 32.0464C42.6653 32.0464 41.8633 32.8484 41.8633 34.0239Z" fill="white"></path><path d="M50.0984 18.8406C48.3867 17.6101 47.6397 16.4873 47.6397 15.1514C47.6397 13.4397 49.0305 12.3718 51.0081 12.3718C53.5218 12.3718 54.6973 13.5474 56.1937 13.5474C57.3692 13.5474 58.1712 12.7454 58.1712 11.5698C58.1712 10.7151 57.7428 10.0185 56.62 9.4846C54.8555 8.62985 52.9307 8.30905 50.8455 8.30905C48.6526 8.30905 46.7278 8.95066 45.3391 10.0207C44.8579 10.5019 44.5898 11.0908 44.5898 11.7851C44.5898 13.5474 46.2488 16.1665 50.0984 18.8406Z" fill="white"></path><path d="M18.5547 22.9034C18.5547 31.297 22.4043 37.8207 34.5948 36.0014C38.4972 33.9689 41.279 29.8534 43.2016 23.545L44.3244 19.8557C43.2543 18.4649 42.828 16.9158 42.828 15.2568C42.828 13.4924 43.4696 11.8884 44.5397 10.7129C42.9357 12.4245 41.5998 14.936 40.5297 18.4649L39.2992 22.5276C37.1063 29.693 33.6324 33.1141 28.2315 33.1141C22.2967 33.1141 18.5547 28.9986 18.5547 22.9034Z" fill="white"></path></svg> 