<svg width="97" height="40" viewBox="0 0 97 40" fill="none" xmlns="http://www.w3.org/2000/svg">
<g clip-path="url(#clip0_2067_50666)">
<path d="M89.3197 27.8167C89.0629 27.8167 88.886 27.6407 88.886 27.3876V14.8143H84.5651C84.3082 14.8143 84.131 14.6391 84.131 14.3857V12.6513C84.131 12.3973 84.3083 12.2216 84.5651 12.2216H96.0665C96.3232 12.2216 96.4999 12.3975 96.4999 12.6513V14.3856C96.4999 14.6388 96.3232 14.8143 96.0665 14.8143H91.7459V27.3874C91.7459 27.6407 91.5682 27.8167 91.3122 27.8167H89.3197ZM56.2212 21.5394L53.953 15.1071L51.6645 21.5394H56.2212ZM61.2518 27.3087C61.3509 27.5627 61.1927 27.8167 60.9165 27.8167H58.8653C58.5692 27.8167 58.3914 27.6807 58.2925 27.4065L57.1291 24.0937H50.7577L49.5923 27.4065C49.4944 27.6808 49.3162 27.8167 49.0209 27.8167H47.0882C46.8314 27.8167 46.6535 27.5626 46.7523 27.3087L52.0983 12.6123C52.1972 12.3385 52.3747 12.2223 52.67 12.2223H55.3135C55.6097 12.2223 55.807 12.3386 55.9056 12.6123L61.2518 27.3087ZM76.5754 25.711C77.8374 25.711 78.6861 25.1077 79.3767 24.0741L76.1815 20.6819C74.9578 21.3647 74.1683 22.046 74.1683 23.4109C74.1685 24.7562 75.2727 25.711 76.5754 25.711ZM77.463 14.2879C76.4375 14.2879 75.8457 14.9318 75.8457 15.7893C75.8457 16.452 76.2001 17.0369 77.0092 17.8948C78.4097 17.095 79.0019 16.608 79.0019 15.7505C79.0019 14.9506 78.4892 14.2879 77.463 14.2879ZM86.2029 27.2708C86.4591 27.544 86.3016 27.8167 85.9851 27.8167H83.4797C83.1445 27.8167 82.967 27.7383 82.7501 27.4847L81.2508 25.8479C80.2449 27.1736 78.8431 28.1675 76.5158 28.1675C73.6358 28.1675 71.3665 26.4522 71.3665 23.5092C71.3665 21.2473 72.5903 20.0384 74.4449 19.025C73.5367 17.992 73.1232 16.9003 73.1232 15.9456C73.1232 13.5277 74.8394 11.8711 77.4232 11.8711C80.0667 11.8711 81.6846 13.4116 81.6846 15.6919C81.6846 17.6412 80.2646 18.7319 78.7648 19.5512L80.9746 21.9106L82.2172 19.7656C82.3749 19.5126 82.5525 19.4147 82.8677 19.4147H84.7809C85.097 19.4147 85.2746 19.6297 85.0779 19.9609L82.868 23.7031L86.2029 27.2708ZM66.5156 27.8167C66.772 27.8167 66.9504 27.6407 66.9504 27.3876V14.8143H71.2701C71.5265 14.8143 71.7039 14.6391 71.7039 14.3857V12.6513C71.7039 12.3973 71.5265 12.2216 71.2701 12.2216H59.7687C59.5118 12.2216 59.3347 12.3975 59.3347 12.6513V14.3856C59.3347 14.6388 59.5119 14.8143 59.7687 14.8143H64.0883V27.3874C64.0883 27.6407 64.2664 27.8167 64.5226 27.8167H66.5156Z" fill="#6A6F73"/>
<path d="M8.13257 35.3996C11.4781 37.9597 15.6774 39.4978 20.2334 39.4978C25.2192 39.4978 29.7645 37.668 33.2334 34.6644C33.2754 34.6277 33.2547 34.6034 33.2132 34.6277C31.6566 35.6553 27.2201 37.8986 20.2336 37.8986C14.1621 37.8986 10.3251 36.5594 8.15829 35.3639C8.11683 35.3437 8.10147 35.3744 8.13257 35.3996ZM21.5729 36.3964C26.4291 36.3964 31.7653 35.0878 34.9569 32.4975C35.8303 31.7917 36.6622 30.8524 37.4072 29.59C37.8361 28.8637 38.2556 28.0007 38.5973 27.1525C38.6125 27.1111 38.5866 27.091 38.5552 27.1375C35.5872 31.4549 26.9928 34.1479 18.1186 34.1479C11.846 34.1479 5.0968 32.1651 2.45443 28.379C2.42842 28.344 2.40241 28.359 2.41824 28.3992C4.8798 33.5711 12.3476 36.3964 21.5729 36.3964ZM16.2672 27.8165C6.16739 27.8165 1.40514 23.1666 0.541269 19.9935C0.530616 19.9475 0.5 19.9576 0.5 19.9989C0.5 21.0671 0.608163 22.4457 0.794258 23.3607C0.883034 23.8062 1.24975 24.5052 1.7874 25.0624C4.23303 27.5823 10.3303 31.1132 20.8898 31.1132C35.2767 31.1132 38.5662 26.3759 39.2379 24.818C39.7183 23.7038 39.9671 21.6903 39.9671 19.999C39.9671 19.5897 39.9568 19.2627 39.9411 18.9418C39.9411 18.8897 39.9106 18.8854 39.9001 18.9362C39.1811 22.7483 26.8892 27.8165 16.2672 27.8165ZM2.40241 11.6338C1.82368 12.7691 1.18219 14.6845 0.991486 15.6758C0.907892 16.1006 0.943498 16.3045 1.09418 16.6215C2.30471 19.1604 8.42779 23.2226 22.7105 23.2226C31.4241 23.2226 38.193 21.1065 39.2896 17.2449C39.4915 16.534 39.5023 15.7835 39.2429 14.7722C38.9531 13.6421 38.4102 12.3242 37.9508 11.3988C37.9356 11.3686 37.9089 11.3731 37.9143 11.4088C38.085 16.4736 23.7966 19.7379 16.5873 19.7379C8.77829 19.7379 2.26344 16.6623 2.26344 12.7788C2.26344 12.4057 2.34156 12.0325 2.43907 11.6441C2.44886 11.6086 2.41815 11.6027 2.40241 11.6338ZM33.2653 5.41523C33.3483 5.54368 33.3896 5.68077 33.3896 5.8653C33.3896 8.0318 26.6819 11.8644 16.004 11.8644C8.15829 11.8644 6.6894 8.98735 6.6894 7.15765C6.6894 6.5036 6.94316 5.83437 7.50202 5.15471C7.53254 5.11429 7.50662 5.09873 7.4714 5.12881C6.45215 5.98266 5.51563 6.94342 4.69409 7.98057C4.30155 8.47105 4.05787 8.90557 4.05787 9.1659C4.05787 12.9576 13.6761 15.7068 22.6694 15.7068C32.2518 15.7068 36.5285 12.6146 36.5285 9.89708C36.5285 8.92587 36.146 8.35892 35.1676 7.25973C34.5326 6.54468 33.9319 5.96245 33.296 5.38933C33.2653 5.36428 33.2439 5.38468 33.2653 5.41523ZM30.3276 3.2492C27.3703 1.49692 23.936 0.5 20.2336 0.5C16.5054 0.5 12.9677 1.53173 9.99966 3.33041C9.1094 3.87204 8.60832 4.30608 8.60832 4.86402C8.60832 6.50872 12.4967 8.27714 19.3953 8.27714C26.2222 8.27714 31.5173 6.34013 31.5173 4.47561C31.5173 4.03057 31.1239 3.7192 30.3276 3.2492Z" fill="#6A6F73"/>
</g>
<defs>
<clipPath id="clip0_2067_50666">
<rect width="96" height="39" fill="white" transform="translate(0.5 0.5)"/>
</clipPath>
</defs>
</svg>
