<svg width="94" height="40" viewBox="0 0 94 40" fill="none" xmlns="http://www.w3.org/2000/svg">
<g clip-path="url(#clip0_2067_50684)">
<path d="M30.5684 7.70499H2.7266V2.52393H30.5684V7.70499ZM32.5577 0.523438H0.736328V9.70043H32.5577V0.523438Z" fill="#6A6F73"/>
<path d="M2.72645 24.873H0.737305V15.6935H2.72645V19.3198H6.28044V15.6935H8.26959V24.873H6.28044V21.0702H2.72645V24.873Z" fill="#6A6F73"/>
<path d="M11.3014 20.8222H13.6707C13.6266 20.1473 13.3492 19.6769 12.5737 19.6769C11.9886 19.6769 11.4767 19.927 11.3014 20.8222ZM12.8076 24.9922C10.7895 24.9922 9.41504 23.7147 9.41504 21.616C9.41504 19.5744 10.7605 18.1652 12.5447 18.1652C14.4897 18.1652 15.455 19.4718 15.455 21.4248V22.1592H11.3014C11.536 23.1715 12.3253 23.4355 13.1153 23.4355C13.8025 23.4355 14.2993 23.2892 14.9134 22.9069H14.9872V24.4193C14.4607 24.8016 13.7142 24.9922 12.8076 24.9922Z" fill="#6A6F73"/>
<path d="M20.6321 21.0246L19.6082 24.8711H17.8681L15.8789 18.4138V18.3403H17.7804L18.8623 22.2021L19.8862 18.3403H21.4365L22.4749 22.2021L23.572 18.3403H25.4003V18.4138L23.4112 24.8711H21.6704L20.6321 21.0246Z" fill="#6A6F73"/>
<path d="M28.601 24.9746C27.0216 24.9746 26.3779 24.3434 26.3779 22.8608V15.6501H28.3084V22.7278C28.3084 23.183 28.4837 23.3445 28.8639 23.3445C28.9957 23.3445 29.1861 23.3008 29.3027 23.2565H29.3323V24.8569C29.1716 24.9151 28.8935 24.974 28.601 24.974" fill="#6A6F73"/>
<path d="M31.779 20.8222H34.1483C34.1042 20.1473 33.8267 19.6769 33.0513 19.6769C32.4668 19.6769 31.9542 19.927 31.779 20.8222ZM33.2852 24.9922C31.267 24.9922 29.8926 23.7147 29.8926 21.616C29.8926 19.5744 31.238 18.1652 33.0223 18.1652C34.9673 18.1652 35.9325 19.4718 35.9325 21.4248V22.1592H31.779C32.0129 23.1715 32.8029 23.4355 33.5922 23.4355C34.2801 23.4355 34.7769 23.2892 35.3916 22.9069H35.4647V24.4193C34.9383 24.8016 34.1924 24.9922 33.2852 24.9922Z" fill="#6A6F73"/>
<path d="M43.884 18.3394H45.3171V19.8955H43.884V22.5531C43.884 23.126 44.1034 23.3906 44.6885 23.3906C44.8493 23.3906 45.0542 23.3754 45.2736 23.302H45.3171V24.829C45.0687 24.9176 44.6885 25.0195 44.1331 25.0195C42.5676 25.0195 41.9535 24.3004 41.9535 22.6411V19.8955H39.482V22.5531C39.482 23.126 39.7014 23.3906 40.2859 23.3906C40.4473 23.3906 40.6522 23.3754 40.8716 23.302H40.9151V24.829C40.6667 24.9176 40.2859 25.0195 39.7311 25.0195C38.1656 25.0195 37.5515 24.3004 37.5515 22.6411V19.8955H36.5566V18.3394H37.5515V16.5484H39.482V18.3394H41.9535V16.5484H43.884V18.3394Z" fill="#6A6F73"/>
<path d="M51.8028 20.1631C52.8128 20.1631 53.2945 19.5908 53.2945 18.7685C53.2945 17.9164 52.8128 17.3441 51.8028 17.3441H50.545V20.1631H51.8028ZM55.3133 18.7685C55.3133 20.7658 53.9824 21.8515 51.9636 21.8515H50.545V24.832H48.5571V15.6525H51.9636C53.9824 15.6525 55.3133 16.7389 55.3133 18.7653" fill="#6A6F73"/>
<path d="M59.5701 22.7974V22.2396C59.2776 22.0788 58.898 22.02 58.5027 22.02C57.8741 22.02 57.4939 22.2542 57.4939 22.7828C57.4939 23.3266 57.8741 23.5615 58.4441 23.5615C58.985 23.5615 59.3948 23.2823 59.5701 22.7974ZM59.6287 24.2072C59.2044 24.7213 58.5765 24.9707 57.9025 24.9707C56.6308 24.9707 55.5918 24.1933 55.5918 22.8119C55.5918 21.535 56.6308 20.6835 58.1219 20.6835C58.5897 20.6835 59.0733 20.757 59.5701 20.9032V20.7867C59.5701 20.0815 59.1754 19.7738 58.1377 19.7738C57.4788 19.7738 56.8502 19.9637 56.3086 20.2727H56.2361V18.716C56.733 18.4229 57.6112 18.1728 58.4731 18.1728C60.4332 18.1728 61.5006 19.1123 61.5006 20.757V24.853H59.6287V24.2072Z" fill="#6A6F73"/>
<path d="M62.4453 21.5824C62.4453 19.4825 63.9231 18.1612 65.8537 18.1612C66.5409 18.1612 67.184 18.3081 67.6669 18.6601V20.3194H67.5931C67.1688 19.9965 66.672 19.8053 66.1021 19.8053C65.1368 19.8053 64.4055 20.4669 64.4055 21.5824C64.4055 22.6978 65.1368 23.3442 66.1021 23.3442C66.672 23.3442 67.1688 23.153 67.5931 22.8295H67.6669V24.4888C67.184 24.8414 66.5409 24.9883 65.8537 24.9883C63.9231 24.9883 62.4453 23.6823 62.4453 21.5824Z" fill="#6A6F73"/>
<path d="M70.8181 21.8863V24.8516H68.8882V15.672H70.8181V20.8987L72.7637 18.3145H74.9571V18.3879L72.6174 21.3538L74.9571 24.775V24.8484H72.7486L70.8181 21.8831" fill="#6A6F73"/>
<path d="M79.2911 22.7974V22.2396C78.9992 22.0788 78.6184 22.02 78.2237 22.02C77.5952 22.02 77.215 22.2542 77.215 22.7828C77.215 23.3266 77.5952 23.5615 78.1645 23.5615C78.7067 23.5615 79.1159 23.2823 79.2911 22.7974ZM79.3498 24.2072C78.9255 24.7213 78.2963 24.9707 77.6242 24.9707C76.3512 24.9707 75.3135 24.1933 75.3135 22.8119C75.3135 21.535 76.3512 20.6835 77.8442 20.6835C78.312 20.6835 78.7937 20.757 79.2911 20.9032V20.7867C79.2911 20.0815 78.8965 19.7738 77.8581 19.7738C77.2005 19.7738 76.5706 19.9637 76.0297 20.2727H75.9566V18.716C76.454 18.4229 77.3316 18.1728 78.1941 18.1728C80.1549 18.1728 81.2223 19.1123 81.2223 20.757V24.853H79.3498V24.2072Z" fill="#6A6F73"/>
<path d="M84.4866 19.3534C84.8372 18.6336 85.3497 18.2227 86.0666 18.2227C86.3295 18.2227 86.5924 18.2816 86.6939 18.3405V20.1903H86.6214C86.402 20.1017 86.1391 20.0434 85.7734 20.0434C85.1738 20.0434 84.706 20.3961 84.5446 21.0709V24.8301H82.6147V18.2968H84.4866V19.354" fill="#6A6F73"/>
<path d="M91.8002 22.6459V20.546C91.4787 20.0762 91.055 19.8711 90.5714 19.8711C89.7241 19.8711 89.1535 20.4884 89.1535 21.6038C89.1535 22.7193 89.7241 23.3214 90.5714 23.3214C91.055 23.3214 91.4787 23.1156 91.8002 22.6459ZM91.8582 24.188C91.4491 24.7167 90.8053 25.0098 89.9284 25.0098C88.2608 25.0098 87.1934 23.4834 87.1934 21.6038C87.1934 19.7243 88.2608 18.1827 89.9284 18.1827C90.7763 18.1827 91.3904 18.4474 91.8002 18.9317V15.6872H93.7308V24.8604H91.8582V24.1855" fill="#6A6F73"/>
<path d="M0.759277 27.8614H6.40455V28.9769H2.03158V31.7807H5.99474V32.8677H2.03158V35.9216H6.40455V37.0371H0.759277V27.8639" fill="#6A6F73"/>
<path d="M11.0485 30.4449C12.496 30.4449 13.3005 31.3996 13.3005 32.9696V37.0371H12.0869V32.9994C12.0869 32.1625 11.6626 31.5604 10.7414 31.5604C9.98108 31.5604 9.33737 32.0453 9.11796 32.7348V37.0371H7.9043V30.5798H9.11796V31.5193C9.49814 30.9172 10.1419 30.4475 11.0485 30.4475" fill="#6A6F73"/>
<path d="M16.5464 30.5465H18.1989V31.5892H16.5464V35.0685C16.5464 35.8023 16.9266 36.0523 17.6138 36.0523C17.8035 36.0523 18.0085 36.0232 18.1547 35.9643H18.1989V37.0064C18.0236 37.0798 17.7745 37.1387 17.4385 37.1387C15.9317 37.1387 15.3327 36.448 15.3327 35.1863V31.5892H14.2212V30.5465H15.3327V28.8296H16.5464V30.5465Z" fill="#6A6F73"/>
<path d="M20.2285 33.1798H23.4313C23.3878 32.2257 22.9194 31.492 21.9251 31.492C21.004 31.492 20.4038 32.1821 20.2285 33.1798ZM22.1445 37.1738C20.2575 37.1738 18.9707 35.9109 18.9707 33.885C18.9707 31.8586 20.1699 30.4494 21.9106 30.4494C23.6803 30.4494 24.6015 31.7269 24.6015 33.6204V34.1788H20.1844C20.3161 35.4854 21.1503 36.1166 22.3053 36.1166C23.0221 36.1166 23.5334 35.9552 24.104 35.5291H24.1482V36.6015C23.6217 37.0124 22.9339 37.1738 22.1445 37.1738Z" fill="#6A6F73"/>
<path d="M27.2898 31.558C27.5679 30.868 28.1826 30.4571 28.8837 30.4571C29.1623 30.4571 29.4108 30.5008 29.5129 30.5597V31.7631H29.4694C29.2935 31.6758 29.0009 31.6315 28.7084 31.6315C28.0508 31.6315 27.4947 32.0714 27.2898 32.8058V37.0195H26.0762V30.5622H27.2898V31.5606" fill="#6A6F73"/>
<path d="M33.3931 36.0667C34.5923 36.0667 35.2946 35.1127 35.2946 33.8054C35.2946 32.5139 34.5923 31.5453 33.3931 31.5453C32.7349 31.5453 32.1208 31.9416 31.7993 32.5722V35.0544C32.1208 35.685 32.7349 36.0667 33.3931 36.0667ZM33.598 30.4438C35.5134 30.4438 36.5373 32.0151 36.5373 33.8054C36.5373 35.5976 35.5134 37.1683 33.598 37.1683C32.808 37.1683 32.1353 36.7574 31.7993 36.3161V39.5176H30.585V30.5786H31.7993V31.3123C32.1353 30.8572 32.808 30.4463 33.598 30.4463" fill="#6A6F73"/>
<path d="M39.1932 31.558C39.4706 30.868 40.0853 30.4571 40.787 30.4571C41.065 30.4571 41.3134 30.5008 41.4156 30.5597V31.7631H41.3721C41.1968 31.6758 40.9043 31.6315 40.6117 31.6315C39.9535 31.6315 39.3981 32.0714 39.1932 32.8058V37.0195H37.9795V30.5622H39.1932V31.5606" fill="#6A6F73"/>
<path d="M43.1778 27.9633C43.6021 27.9633 43.9527 28.3007 43.9527 28.7268C43.9527 29.1528 43.6021 29.4902 43.1778 29.4902C42.7686 29.4902 42.4023 29.1528 42.4023 28.7268C42.4023 28.3007 42.7686 27.9633 43.1778 27.9633Z" fill="#6A6F73"/>
<path d="M42.5728 37.0288H43.7873V30.5664H42.5728V37.0288Z" fill="#6A6F73"/>
<path d="M48.121 33.2313C49.0422 33.5244 50.0654 33.9062 50.0654 35.1394C50.0654 36.4612 48.9835 37.1367 47.5946 37.1367C46.746 37.1367 45.898 36.931 45.415 36.5492V35.3894H45.4737C46.0153 35.8883 46.8191 36.1086 47.5795 36.1086C48.2667 36.1086 48.8814 35.844 48.8814 35.2863C48.8814 34.714 48.3701 34.5816 47.3601 34.2442C46.4534 33.9505 45.4447 33.6124 45.4447 32.3944C45.4447 31.146 46.4679 30.4122 47.7699 30.4122C48.5302 30.4122 49.2029 30.5737 49.7439 30.9409V32.1158H49.7004C49.1746 31.6898 48.5592 31.4397 47.7989 31.4397C47.0385 31.4397 46.6142 31.7778 46.6142 32.233C46.6142 32.747 47.082 32.8932 48.121 33.2313Z" fill="#6A6F73"/>
<path d="M52.3579 33.1798H55.5601C55.5166 32.2257 55.0488 31.492 54.0539 31.492C53.1327 31.492 52.5332 32.1821 52.3579 33.1798ZM54.2733 37.1738C52.3869 37.1738 51.1001 35.9109 51.1001 33.885C51.1001 31.8586 52.2993 30.4494 54.0394 30.4494C55.8097 30.4494 56.7302 31.7269 56.7302 33.6204V34.1788H52.3138C52.4455 35.4854 53.279 36.1166 54.434 36.1166C55.1515 36.1166 55.6628 35.9552 56.2328 35.5291H56.2769V36.6015C55.7511 37.0124 55.0633 37.1738 54.2733 37.1738Z" fill="#6A6F73"/>
</g>
<defs>
<clipPath id="clip0_2067_50684">
<rect width="93" height="39" fill="white" transform="translate(0.69043 0.5)"/>
</clipPath>
</defs>
</svg>
