<?xml version="1.0" encoding="UTF-8"?> <svg xmlns="http://www.w3.org/2000/svg" width="81" height="81" viewBox="0 0 81 81" fill="none"><path d="M28.3798 39.0223L28 46L32 44.8369L28.4551 39L28.3798 39.0223Z" fill="white"></path><path d="M75.96 42.9302L81 39.9115L79.1217 38.8644L70.0515 41.2995L65.8908 25.7482L68.6601 25.005L72.1476 38.0491L75.87 37.0498L80.3475 33.2429L74.8197 31.2587L78.6195 26.7718L72.8406 25.7229L75.8475 20.6678L69.9759 20.5929L72.1044 15.1094L66.3012 16.0113L67.5 10.2455L61.92 12.0854L62.1603 6.20593L56.9592 8.93867L56.2392 3.09891L51.5592 6.64876L49.8789 1.00832L45.8451 5.2851L43.2621 0L39.9924 4.88736L36.5724 0.107325L34.1478 5.46367L29.9961 1.30143L28.4742 6.98337L23.6979 3.56248L23.1345 9.41938L17.8578 6.83816L18.2718 12.7086L12.6414 11.0356L14.0139 16.7572L8.1864 16.0357L10.476 21.4552L4.608 21.6978L7.7526 26.6672L2.0043 27.8685L5.9229 32.2526L0.45 34.3928L5.04 38.0653L0 41.084L5.13 43.9448L0.6543 47.7526L6.1821 49.7367L2.3832 54.2255L8.1612 55.2744L5.1543 60.325L11.0268 60.3989L8.8974 65.8879L14.7006 64.986L13.5 70.75L19.08 68.9047L18.8397 74.7841L24.0399 72.0613L24.7599 77.9011L29.4399 74.3512L31.113 79.9917L35.1468 75.7149L37.7298 81L40.9995 76.1117L44.4195 80.8918L46.8441 75.5318L50.9958 79.6941L52.5177 74.0121L57.2949 77.4348L57.8574 71.577L63.1341 74.1591L62.73 68.2869L68.3604 69.9599L66.9879 64.2374L72.8154 64.9589L70.5258 59.5394L76.3938 59.2968L73.2492 54.3274L78.9948 53.1216L75.0771 48.7384L80.55 46.6027L75.96 42.9302ZM21.0924 54.4455L17.8911 42.4738L17.5419 55.3988L15.1398 56.0437L8.3898 45.0253L11.5902 56.9997L8.82 57.7411L4.662 42.1888L8.8623 41.0614L15.1731 51.3538L15.5025 39.2784L19.7028 38.1501L23.8617 53.7024L21.0924 54.4455ZM36.1224 50.4105L33.75 46.8083L27.8676 48.3884L27.6138 52.6986L24.84 53.4399L26.0586 36.4446L29.3607 35.5572L38.9007 49.6655L36.1224 50.4105ZM48.8592 33.0283L52.3422 46.0552L49.5729 46.7984L46.0899 33.7714L40.4199 35.2938L43.9029 48.3208L41.1345 49.063L37.6515 36.037L33.21 37.2311L32.535 34.7058L52.6293 29.3116L53.3052 31.8369L48.8592 33.0283ZM58.1787 44.4877L54.0198 28.9355L63.9729 26.2632L64.6479 28.7885L57.4641 30.7176L58.4541 34.4217L65.0529 32.6486L65.7234 35.1567L59.13 36.9299L60.2721 41.2166L67.59 39.2531L68.265 41.7784L58.1787 44.4877Z" fill="white"></path><path d="M71.5 69C71.2033 69 70.9133 68.912 70.6666 68.7472C70.42 68.5824 70.2277 68.3481 70.1142 68.074C70.0006 67.7999 69.9709 67.4983 70.0288 67.2074C70.0867 66.9164 70.2296 66.6491 70.4393 66.4393C70.6491 66.2296 70.9164 66.0867 71.2074 66.0288C71.4983 65.9709 71.7999 66.0007 72.074 66.1142C72.3481 66.2277 72.5824 66.42 72.7472 66.6666C72.912 66.9133 73 67.2033 73 67.5C72.9995 67.8977 72.8413 68.2789 72.5601 68.5601C72.2789 68.8413 71.8977 68.9995 71.5 69V69ZM71.5 66.2627C71.2551 66.2627 71.0156 66.3354 70.812 66.4714C70.6083 66.6075 70.4496 66.801 70.356 67.0273C70.2623 67.2536 70.2378 67.5026 70.2856 67.7428C70.3335 67.983 70.4515 68.2037 70.6248 68.3768C70.798 68.5499 71.0187 68.6678 71.259 68.7155C71.4993 68.7631 71.7482 68.7385 71.9745 68.6446C72.2007 68.5508 72.394 68.3919 72.53 68.1882C72.6659 67.9844 72.7384 67.7449 72.7382 67.5C72.738 67.1718 72.6074 66.8571 72.3752 66.625C72.143 66.393 71.8282 66.2627 71.5 66.2627V66.2627Z" fill="white"></path><path d="M71.216 69H71V67.0021H71.4978C71.6235 66.989 71.7487 67.0362 71.8558 67.137C71.8979 67.1896 71.9309 67.2572 71.952 67.3337C71.973 67.4102 71.9815 67.4934 71.9766 67.576C71.9807 67.6489 71.974 67.7223 71.9571 67.7907C71.9401 67.8592 71.9132 67.921 71.8785 67.9715C71.8086 68.0576 71.7235 68.11 71.634 68.122L72 69H71.7555L71.4165 68.1454H71.2138L71.216 69ZM71.4568 67.8657C71.4971 67.8657 71.5351 67.8657 71.5725 67.859C71.6061 67.8549 71.6389 67.8409 71.6691 67.8178C71.6964 67.7957 71.7194 67.763 71.7357 67.7231C71.7544 67.6709 71.763 67.6118 71.7606 67.5526C71.7625 67.5012 71.7532 67.4503 71.7343 67.4077C71.7161 67.3726 71.6928 67.3444 71.6662 67.3253C71.637 67.3056 71.6058 67.2935 71.5739 67.2896C71.5414 67.2843 71.5086 67.2817 71.4758 67.2818H71.216V67.8657H71.4568Z" fill="white"></path></svg> 